<svg width="23" height="24" viewBox="0 0 23 24" fill="none" xmlns="http://www.w3.org/2000/svg">
<g clip-path="url(#clip0_422_6268)">
<path fill-rule="evenodd" clip-rule="evenodd" d="M3.8335 14.875C3.30423 14.875 2.87516 15.304 2.87516 15.8333V20.625C2.87516 21.1543 3.30423 21.5833 3.8335 21.5833C4.36276 21.5833 4.79183 21.1543 4.79183 20.625V15.8333C4.79183 15.304 4.36276 14.875 3.8335 14.875ZM3.8335 12.9583C5.42131 12.9583 6.7085 14.2455 6.7085 15.8333V20.625C6.7085 22.2129 5.42131 23.5 3.8335 23.5C2.24568 23.5 0.958496 22.2129 0.958496 20.625V15.8333C0.958496 14.2455 2.24568 12.9583 3.8335 12.9583ZM11.5002 0.5C13.088 0.5 14.3752 1.78719 14.3752 3.375V20.625C14.3752 22.2129 13.088 23.5 11.5002 23.5C9.9123 23.5 8.62516 22.2129 8.62516 20.625V3.375C8.62516 1.78719 9.9123 0.5 11.5002 0.5ZM11.5002 2.41667C10.9709 2.41667 10.5418 2.84573 10.5418 3.375V20.625C10.5418 21.1543 10.9709 21.5833 11.5002 21.5833C12.0295 21.5833 12.4585 21.1543 12.4585 20.625V3.375C12.4585 2.84573 12.0295 2.41667 11.5002 2.41667ZM19.1668 7.20833C20.7547 7.20833 22.0418 8.49552 22.0418 10.0833V20.625C22.0418 22.2129 20.7547 23.5 19.1668 23.5C17.579 23.5 16.2918 22.2129 16.2918 20.625V10.0833C16.2918 8.49552 17.579 7.20833 19.1668 7.20833ZM19.1668 9.125C18.6375 9.125 18.2085 9.55406 18.2085 10.0833V20.625C18.2085 21.1543 18.6375 21.5833 19.1668 21.5833C19.6961 21.5833 20.1252 21.1543 20.1252 20.625V10.0833C20.1252 9.55406 19.6961 9.125 19.1668 9.125Z" fill="#272727" fill-opacity="0.5"/>
</g>
<defs>
<clipPath id="clip0_422_6268">
<rect width="23" height="23" fill="white" transform="translate(0 0.5)"/>
</clipPath>
</defs>
</svg>
