<svg width="45" height="43" viewBox="0 0 45 43" fill="none" xmlns="http://www.w3.org/2000/svg">
<path d="M31.6312 17.0514C30.3338 16.986 29.1429 16.9603 27.9606 16.8469C27.4699 16.7937 26.9954 16.6398 26.5669 16.3949C24.3587 15.1232 22.0576 15.2693 19.992 16.8606C19.1109 17.5409 18.4626 18.4779 18.1366 19.5423C17.8107 20.6067 17.8231 21.746 18.1722 22.8031C18.7702 24.6332 19.9645 25.984 21.9528 26.3947C23.9703 26.814 25.7541 26.3534 27.0979 24.6917C27.7698 23.8616 28.0603 22.8907 28.1668 21.8631C28.184 21.6912 27.995 21.4472 27.8231 21.3578C27.7355 21.308 27.4674 21.4867 27.3419 21.619C27.181 21.8188 27.0368 22.0315 26.9106 22.2549C26.3349 23.1141 25.5152 23.5042 24.4961 23.3083C23.3723 23.0935 22.6918 22.3339 22.3773 21.2822C22.092 20.3285 22.5852 19.5998 23.2365 18.976C23.8878 18.3522 24.7058 18.1168 25.6011 18.1718C26.2988 18.2096 26.9948 18.3333 27.6891 18.3247C29.1446 18.3024 30.0588 19.2218 30.8579 20.1755C32.4183 22.0332 32.4045 24.1435 31.2016 26.1249C29.3405 29.2181 26.6064 30.9727 22.8189 30.8094C18.4712 30.6204 14.6974 27.4361 13.9344 23.2121C13.2677 19.5139 14.1836 16.2299 17.0466 13.6694C21.085 10.0606 28.1496 10.4146 31.3425 16.3038C31.4543 16.5467 31.5507 16.7964 31.6312 17.0514Z" fill="#6177FC"/>
<path d="M44.7348 18.8372C44.1299 17.4023 43.6058 15.9657 42.9304 14.5909C40.6552 10.0524 37.2956 6.51409 32.5148 4.54644C27.0277 2.2815 21.6575 2.69221 16.5038 5.68063C12.1183 8.22397 9.71071 12.1043 8.94256 16.9297C8.33594 20.6983 9.40483 24.1164 11.9327 27.079C13.0965 28.4066 14.4415 29.5636 15.9281 30.516C16.1915 30.6644 16.4223 30.8643 16.6069 31.1037C16.0501 30.8631 15.4985 30.6156 14.9383 30.3871C11.6251 29.0295 9.31375 26.6666 7.84789 23.4771C7.00928 21.6555 6.7137 19.7205 6.76182 17.734C6.87696 12.8621 8.72431 8.7206 12.4328 5.50707C16.0416 2.38289 20.2999 0.726284 25.158 0.949685C28.4583 1.1105 31.662 2.11645 34.4618 3.87108C37.4863 5.72703 39.8492 8.22568 41.7567 11.1419C43.1786 13.3253 44.1659 15.7625 44.6644 18.32C44.6919 18.4832 44.7073 18.6516 44.7348 18.8372Z" fill="#6177FC"/>
<path d="M1.84613 15.482C1.79801 16.3739 1.72068 17.2641 1.71037 18.1543C1.6296 24.4988 3.85674 29.7728 9.23555 33.4933C12.724 35.8992 16.625 37.0179 20.8936 36.4508C24.5695 35.9627 27.6215 34.2271 30.1459 31.5721C31.6753 29.9619 32.9281 28.1661 33.6378 26.073C34.2478 24.2578 34.5198 22.3462 34.4403 20.4329C34.4403 20.2611 34.4403 20.103 34.4403 19.9363L34.6122 19.9088C34.729 20.4243 34.8768 20.9399 34.9559 21.4554C35.5419 25.1725 34.748 28.5888 32.6738 31.7439C30.0015 35.8064 26.1436 38.1022 21.3868 38.8549C17.2127 39.5165 13.2533 38.7278 9.59815 36.5694C6.81594 34.9282 4.44274 32.8729 2.80504 30.0804C1.79629 28.362 1.26872 26.4373 1.01611 24.4902C0.639764 21.5929 0.70163 18.687 1.56774 15.8481C1.60726 15.7192 1.65882 15.592 1.70521 15.4648L1.84613 15.482Z" fill="#6177FC"/>
<path d="M39.5166 35.2605C39.9565 34.4012 40.4566 33.5815 40.8278 32.7017C42.5274 28.6701 43.2182 24.5303 42.0909 20.2153C40.6817 14.821 37.5369 10.7809 32.4795 8.21518C27.0525 5.46563 20.2165 6.48296 15.8447 10.8427C12.4438 14.2333 11.0467 18.3645 11.619 23.116C11.6705 23.5388 11.7908 23.9529 11.8217 24.3894C11.1967 23.2226 10.7743 21.9582 10.5724 20.65C9.90222 15.8538 11.4849 11.8119 15.0164 8.53138C18.4379 5.35565 22.6206 4.25067 27.2175 4.65967C32.3248 5.11506 36.377 7.52608 39.5355 11.4528C41.6973 14.1387 43.1443 17.1701 43.6598 20.5607C44.0396 23.0817 43.8317 25.613 43.1666 28.0979C42.5428 30.4556 41.6802 32.6999 40.1817 34.6676C40.0098 34.8996 39.8225 35.123 39.6438 35.355L39.5166 35.2605Z" fill="#6177FC"/>
<path d="M33.1223 14.2578C33.6379 14.7734 34.2067 15.2545 34.669 15.8165C37.1711 18.8461 38.4754 22.3003 38.2176 26.2304C38.0324 29.559 36.8054 32.7452 34.7102 35.3383C31.1736 39.7513 26.532 42.1383 20.8886 42.616C18.7233 42.7999 16.6078 42.3342 14.5474 41.6416C12.2006 40.8694 10.024 39.6536 8.13579 38.0603C7.14596 37.2217 6.26954 36.2525 5.33984 35.3417L5.45326 35.2197L7.03769 36.4639C9.59388 38.4889 12.6388 39.8043 15.8655 40.2772C22.2238 41.2258 27.6421 39.3578 32.1067 34.8348C34.1957 32.7649 35.6504 30.1417 36.2998 27.2735C37.257 23.0237 36.5593 19.0781 33.9592 15.5123C33.6722 15.1188 33.3148 14.7751 32.9917 14.4073L33.1223 14.2578Z" fill="#6177FC"/>
<path d="M27.3414 32.1315C26.5819 32.6161 25.8567 33.1626 25.0559 33.5698C20.3541 35.9482 15.6868 35.5255 11.2119 33.0543C7.94676 31.3009 5.47671 28.3642 4.30879 24.8469C3.49424 22.4874 3.05947 20.0953 3.24678 17.6104C3.55439 13.5376 4.7006 9.77592 7.54295 6.66205C9.00365 5.06388 10.7737 3.86954 12.6777 2.85392C12.7534 2.81268 12.8496 2.8144 13.0111 2.9072C12.7619 3.10998 12.5179 3.32135 12.2619 3.51553C8.49499 6.36648 6.31425 10.1557 5.42236 14.7114C4.69717 18.4198 5.19724 21.9719 6.99992 25.2868C9.31298 29.5418 12.9768 32.1607 17.7266 33.166C20.8095 33.819 23.8822 33.5355 26.7812 32.159C26.9342 32.0868 27.1009 32.0404 27.259 31.9871L27.3414 32.1315Z" fill="#6177FC"/>
<path d="M26.7435 8.40559L26.4926 8.32483L26.5063 8.21484C27.3999 8.33342 28.3227 8.3506 29.182 8.58603C34.8753 10.1481 38.6576 14.4288 39.6543 18.1992L38.7831 18.481C37.4083 15.6197 35.2929 13.3513 32.5966 11.6466C29.9363 9.92862 26.8476 8.99093 23.6812 8.94004C24.1967 8.94004 24.7122 9.00706 25.2175 8.92113C25.7227 8.83521 26.2159 8.58775 26.7435 8.40559Z" fill="#6177FC"/>
<path d="M25.5457 8.23293C24.9485 8.34122 24.3648 8.51408 23.8049 8.74847C23.731 8.77425 23.6434 8.82408 23.652 8.90142L25.6265 8.96844C25.8727 9.01578 26.1274 8.98743 26.3572 8.88712C26.587 8.7868 26.781 8.61924 26.9136 8.4065C26.96 8.34979 27.0116 8.28105 26.9892 8.21059C26.9669 8.14013 25.6608 8.20887 25.5457 8.23293Z" fill="#6177FC"/>
</svg>
