<svg width="18" height="32" viewBox="0 0 18 32" fill="none" xmlns="http://www.w3.org/2000/svg">
<path d="M7.97821 31.4001V27.5576C6.57538 27.5332 5.23355 27.4112 3.95271 27.1916C2.68407 26.972 1.6472 26.6854 0.842105 26.3316V23.3674C1.6838 23.7577 2.76336 24.0993 4.0808 24.3921C5.39823 24.6848 6.69737 24.8434 7.97821 24.8678V16.8168C6.36801 16.3655 5.03228 15.8531 3.97101 15.2798C2.92194 14.6943 2.13514 13.9807 1.61061 13.139C1.08607 12.2973 0.823807 11.2787 0.823807 10.0833C0.823807 8.83902 1.11657 7.77776 1.7021 6.89947C2.29982 6.00898 3.13542 5.31367 4.20888 4.81353C5.28235 4.31339 6.53879 4.02673 7.97821 3.95354V0.788039H10.2105V3.91694C11.5158 3.95354 12.7051 4.09992 13.7786 4.35609C14.852 4.60006 15.8462 4.91722 16.7611 5.30757L15.8096 7.85095C14.9801 7.52159 14.0835 7.24103 13.1199 7.00925C12.1562 6.77748 11.1864 6.6189 10.2105 6.53351V14.5296C11.8451 15.0053 13.2113 15.5116 14.3092 16.0483C15.4193 16.585 16.2549 17.2499 16.816 18.0428C17.3771 18.8357 17.6577 19.8603 17.6577 21.1168C17.6577 22.8978 17.0051 24.3372 15.6998 25.435C14.3946 26.5207 12.5648 27.1794 10.2105 27.4112V31.4001H7.97821ZM10.2105 24.7031C11.7109 24.5567 12.8271 24.1969 13.559 23.6236C14.3031 23.038 14.6752 22.2695 14.6752 21.3181C14.6752 20.6349 14.5288 20.0738 14.236 19.6347C13.9555 19.1955 13.4919 18.8174 12.8454 18.5002C12.1989 18.1708 11.3206 17.8598 10.2105 17.567V24.7031ZM7.97821 13.7611V6.60671C7.06332 6.6677 6.29482 6.83848 5.6727 7.11904C5.05057 7.39961 4.58093 7.76556 4.26377 8.2169C3.95881 8.66825 3.80633 9.20498 3.80633 9.8271C3.80633 10.5468 3.94051 11.1506 4.20888 11.6386C4.48945 12.1143 4.93469 12.523 5.54461 12.8645C6.16673 13.1939 6.97793 13.4927 7.97821 13.7611Z" fill="#6177FC"/>
</svg>
