<svg width="21" height="20" viewBox="0 0 21 20" fill="none" xmlns="http://www.w3.org/2000/svg">
<path d="M19.0011 10.1951C19.0011 9.47569 18.9415 8.95069 18.8126 8.40625H10.4297V11.6534H15.3503C15.2511 12.4604 14.7154 13.6757 13.5249 14.4923L13.5082 14.601L16.1587 16.6133L16.3424 16.6312C18.0288 15.1048 19.0011 12.859 19.0011 10.1951Z" fill="#4285F4"/>
<path d="M10.4293 18.75C12.84 18.75 14.8638 17.9722 16.342 16.6305L13.5245 14.4916C12.7706 15.0068 11.7586 15.3666 10.4293 15.3666C8.06822 15.3666 6.06427 13.8402 5.34992 11.7305L5.24522 11.7392L2.48917 13.8295L2.45312 13.9277C3.92136 16.786 6.93723 18.75 10.4293 18.75Z" fill="#34A853"/>
<path d="M5.35014 11.7322C5.16165 11.1877 5.05257 10.6044 5.05257 10.0016C5.05257 9.39881 5.16165 8.8155 5.34022 8.27106L5.33523 8.15511L2.54464 6.03125L2.45333 6.07381C1.8482 7.25994 1.50098 8.59191 1.50098 10.0016C1.50098 11.4113 1.8482 12.7432 2.45333 13.9294L5.35014 11.7322Z" fill="#FBBC05"/>
<path d="M10.4294 4.63331C12.1059 4.63331 13.2368 5.34303 13.8817 5.93613L16.4016 3.525C14.854 2.11528 12.84 1.25 10.4294 1.25C6.93725 1.25 3.92137 3.21387 2.45312 6.07218L5.34002 8.26944C6.0643 6.15972 8.06825 4.63331 10.4294 4.63331Z" fill="#EB4335"/>
</svg>
