<svg width="77" height="73" viewBox="0 0 77 73" fill="none" xmlns="http://www.w3.org/2000/svg">
<path d="M54 27.8823C51.7557 27.7693 49.6958 27.7248 47.6507 27.5286C46.8019 27.4366 45.9812 27.1705 45.24 26.7468C41.4203 24.5471 37.4401 24.7998 33.8671 27.5524C32.3429 28.7291 31.2216 30.3498 30.6577 32.191C30.0939 34.0321 30.1154 36.0029 30.7192 37.8313C31.7537 40.997 33.8196 43.3334 37.2588 44.0439C40.7485 44.7692 43.834 43.9725 46.1585 41.0981C47.3207 39.6624 47.8231 37.9829 48.0074 36.2053C48.0371 35.9081 47.7101 35.486 47.4129 35.3314C47.2613 35.2452 46.7975 35.5544 46.5806 35.7833C46.3022 36.1289 46.0527 36.4967 45.8345 36.8831C44.8387 38.3693 43.4208 39.0441 41.6581 38.7052C39.714 38.3337 38.5369 37.0198 37.993 35.2006C37.4995 33.5509 38.3526 32.2905 39.4792 31.2115C40.6058 30.1325 42.0207 29.7253 43.5694 29.8204C44.7762 29.8858 45.9801 30.0998 47.181 30.0849C49.6987 30.0463 51.2801 31.6366 52.6623 33.2863C55.3614 36.4996 55.3376 40.1499 53.2568 43.5772C50.0376 48.9277 45.3083 51.9626 38.7569 51.6803C31.2364 51.3533 24.7088 45.8452 23.389 38.5388C22.2357 32.1419 23.82 26.4614 28.7722 22.0324C35.7576 15.7901 47.9776 16.4025 53.5006 26.5893C53.6939 27.0094 53.8607 27.4413 54 27.8823Z" fill="white"/>
<path d="M76.6659 30.9755C75.6196 28.4935 74.713 26.0084 73.5448 23.6304C69.6092 15.78 63.7979 9.65959 55.5284 6.25606C46.0371 2.33829 36.748 3.04872 27.8334 8.21792C20.2476 12.6172 16.0831 19.3292 14.7544 27.676C13.7051 34.1947 15.554 40.1071 19.9266 45.2317C21.9397 47.5281 24.2662 49.5294 26.8377 51.1767C27.2932 51.4335 27.6925 51.7792 28.0118 52.1933C27.0487 51.7772 26.0945 51.3491 25.1255 50.9538C19.3945 48.6055 15.3964 44.5183 12.8609 39.0013C11.4103 35.8504 10.899 32.5034 10.9823 29.0671C11.1814 20.6401 14.3769 13.4763 20.7916 7.9177C27.0338 2.51367 34.3997 -0.351836 42.803 0.0345905C48.5117 0.312759 54.0532 2.0528 58.8962 5.08787C64.1278 8.29818 68.2151 12.6202 71.5145 17.6646C73.9741 21.4413 75.6818 25.6571 76.544 30.0808C76.5916 30.3632 76.6184 30.6545 76.6659 30.9755Z" fill="white"/>
<path d="M2.48096 25.1743C2.39773 26.717 2.26397 28.2568 2.24613 29.7965C2.10642 40.771 5.9588 49.8937 15.2628 56.3292C21.297 60.4907 28.0446 62.4258 35.4283 61.4449C41.7865 60.6007 47.0657 57.5985 51.4323 53.0059C54.0779 50.2207 56.2448 47.1144 57.4725 43.4939C58.5276 40.3541 58.9981 37.0475 58.8606 33.7381C58.8606 33.4408 58.8606 33.1674 58.8606 32.879L59.1579 32.8315C59.36 33.7232 59.6157 34.615 59.7524 35.5067C60.766 41.9363 59.3927 47.8456 55.8049 53.3032C51.1826 60.3302 44.5093 64.3015 36.2814 65.6034C29.0612 66.7479 22.2125 65.3835 15.89 61.65C11.0775 58.8112 6.97243 55.2561 4.13962 50.4258C2.39476 47.4533 1.48219 44.124 1.04523 40.7562C0.394254 35.7445 0.501266 30.718 1.99941 25.8074C2.06778 25.5845 2.15695 25.3645 2.23721 25.1445L2.48096 25.1743Z" fill="white"/>
<path d="M67.6409 59.3812C68.4019 57.895 69.2669 56.4771 69.909 54.9551C72.8488 47.9816 74.0437 40.8208 72.0938 33.3568C69.6563 24.0261 64.2166 17.0377 55.4685 12.5998C46.0813 7.84375 34.2566 9.60348 26.6945 17.1447C20.8119 23.0095 18.3953 30.1555 19.3851 38.3745C19.4743 39.1057 19.6824 39.8221 19.7359 40.5771C18.6548 38.5588 17.9241 36.3717 17.5749 34.1089C16.4156 25.8126 19.1533 18.8213 25.2618 13.1467C31.1801 7.65351 38.4152 5.74218 46.3666 6.44964C55.201 7.23736 62.2101 11.4078 67.6736 18.2C71.4131 22.846 73.9159 28.0896 74.8077 33.9543C75.4646 38.315 75.1049 42.6935 73.9546 46.9918C72.8755 51.0701 71.3833 54.9522 68.7913 58.3557C68.494 58.757 68.17 59.1434 67.8609 59.5447L67.6409 59.3812Z" fill="white"/>
<path d="M56.5811 23.0547C57.4728 23.9464 58.4567 24.7787 59.2563 25.7508C63.5843 30.9913 65.8404 36.9661 65.3946 43.7642C65.0742 49.5219 62.9518 55.0331 59.3277 59.5185C53.2102 67.1519 45.1815 71.2808 35.4197 72.1071C31.6744 72.4252 28.0152 71.6196 24.4511 70.4217C20.3918 69.0859 16.6268 66.9829 13.3607 64.227C11.6485 62.7764 10.1325 61.0999 8.52441 59.5245L8.7206 59.3134L11.4613 61.4655C15.8828 64.9684 21.1498 67.2435 26.7311 68.0615C37.7294 69.7024 47.1017 66.4712 54.8243 58.6476C58.4378 55.0673 60.954 50.5298 62.0772 45.5685C63.7329 38.2175 62.5261 31.3926 58.0287 25.2246C57.5323 24.5439 56.914 23.9494 56.3551 23.3133L56.5811 23.0547Z" fill="white"/>
<path d="M46.5814 53.9725C45.2675 54.8108 44.0131 55.756 42.628 56.4605C34.4952 60.5745 26.4218 59.8432 18.6814 55.5688C13.0335 52.5359 8.76098 47.456 6.74078 41.372C5.33181 37.2908 4.57976 33.153 4.90377 28.8548C5.43585 21.8099 7.41852 15.3031 12.3351 9.91688C14.8617 7.15244 17.9234 5.08654 21.2169 3.32978C21.3477 3.25844 21.5142 3.26141 21.7936 3.42193C21.3626 3.77269 20.9405 4.13831 20.4976 4.4742C13.9818 9.4056 10.2097 15.96 8.66697 23.8401C7.41257 30.2548 8.27758 36.399 11.3957 42.133C15.3967 49.4929 21.7341 54.0231 29.9502 55.762C35.2829 56.8915 40.5977 56.4011 45.6124 54.0201C45.8769 53.8952 46.1652 53.815 46.4387 53.7228L46.5814 53.9725Z" fill="white"/>
<path d="M45.546 12.9276L45.1121 12.7879L45.1358 12.5977C46.6815 12.8028 48.2778 12.8325 49.764 13.2397C59.612 15.9417 66.1545 23.3463 67.8786 29.868L66.3715 30.3555C63.9935 25.4062 60.3343 21.4825 55.6704 18.5338C51.0688 15.562 45.7261 13.9401 40.249 13.8521C41.1408 13.8521 42.0325 13.968 42.9065 13.8194C43.7804 13.6707 44.6335 13.2427 45.546 12.9276Z" fill="white"/>
<path d="M43.475 12.6312C42.4419 12.8185 41.4323 13.1175 40.4638 13.5229C40.336 13.5675 40.1844 13.6537 40.1993 13.7875L43.6147 13.9034C44.0405 13.9853 44.4812 13.9362 44.8786 13.7627C45.2761 13.5892 45.6116 13.2994 45.8411 12.9314C45.9213 12.8333 46.0105 12.7144 45.9719 12.5925C45.9332 12.4706 43.6741 12.5895 43.475 12.6312Z" fill="white"/>
</svg>
