<svg width="58" height="56" viewBox="0 0 58 56" fill="none" xmlns="http://www.w3.org/2000/svg">
<path d="M56.9874 22.8314C56.6726 22.5309 56.6726 22.2305 56.3578 21.9301L50.061 15.9218C48.8017 14.7201 46.9126 14.7201 45.6533 15.9218C44.394 17.1234 44.394 18.9259 45.6533 20.1276L46.5978 21.0289H38.412C36.523 21.0289 35.2637 22.2305 35.2637 24.033C35.2637 25.8355 36.523 27.0372 38.412 27.0372H46.5978L45.6533 27.9384C44.394 29.1401 44.394 30.9426 45.6533 32.1443C46.283 32.7451 47.2275 33.0455 47.8572 33.0455C48.4868 33.0455 49.4314 32.7451 50.061 32.1443L56.3578 26.1359C56.6726 25.8355 56.9874 25.5351 56.9874 25.2347C57.3023 24.3334 57.3023 23.7326 56.9874 22.8314Z" fill="black"/>
<path d="M41.5607 33.0459C39.6717 33.0459 38.4123 34.2476 38.4123 36.0501V39.0542C38.4123 40.8567 37.153 42.0584 35.2639 42.0584H32.1156V16.2225C32.1156 12.3171 29.5969 9.01252 26.1337 7.81085L21.0963 6.00835H35.2639C37.153 6.00835 38.4123 7.21001 38.4123 9.01252V12.0167C38.4123 13.8192 39.6717 15.0209 41.5607 15.0209C43.4497 15.0209 44.7091 13.8192 44.7091 12.0167V9.01252C44.7091 3.90542 40.6162 0 35.2639 0H3.78021C3.46537 0 3.15053 -2.90977e-07 2.8357 0.300417C2.52086 0.300417 2.20602 0.600835 2.20602 0.600835L1.89119 0.901252C1.57635 0.901252 1.26151 1.20167 1.26151 1.50209V1.8025C0.946673 1.8025 0.631836 2.10292 0.631836 2.40334V45.0626C0.631836 46.2643 1.57635 47.4659 2.52086 47.7663L23.3001 55.2768C23.9298 55.5772 24.8743 55.5772 25.504 55.5772C26.7633 55.5772 28.0227 55.2768 28.9672 54.3755C30.5414 53.1739 31.8007 51.3713 31.8007 49.5688V48.0668H34.9491C40.3013 48.0668 44.3942 44.1613 44.3942 39.0542V36.0501C44.7091 34.548 43.4497 33.0459 41.5607 33.0459ZM6.92858 42.9597V7.21001L23.615 13.2184C24.8743 13.8192 25.8188 15.0209 25.8188 16.2225V49.5688L6.92858 42.9597Z" fill="black"/>
</svg>
