<svg width="108" height="43" viewBox="0 0 108 43" fill="none" xmlns="http://www.w3.org/2000/svg">
<path d="M32.6312 17.0514C31.3338 16.986 30.1429 16.9603 28.9606 16.8469C28.4699 16.7937 27.9954 16.6398 27.5669 16.3949C25.3587 15.1232 23.0576 15.2693 20.992 16.8606C20.1109 17.5409 19.4626 18.4779 19.1366 19.5423C18.8107 20.6067 18.8231 21.746 19.1722 22.8031C19.7702 24.6332 20.9645 25.984 22.9528 26.3947C24.9703 26.814 26.7541 26.3534 28.0979 24.6917C28.7698 23.8616 29.0603 22.8907 29.1668 21.8631C29.184 21.6912 28.995 21.4472 28.8231 21.3578C28.7355 21.308 28.4674 21.4867 28.3419 21.619C28.181 21.8188 28.0368 22.0315 27.9106 22.2549C27.3349 23.1141 26.5152 23.5042 25.4961 23.3083C24.3723 23.0935 23.6918 22.3339 23.3773 21.2822C23.092 20.3285 23.5852 19.5998 24.2365 18.976C24.8878 18.3522 25.7058 18.1168 26.6011 18.1718C27.2988 18.2096 27.9948 18.3333 28.6891 18.3247C30.1446 18.3024 31.0588 19.2218 31.8579 20.1755C33.4183 22.0332 33.4045 24.1435 32.2016 26.1249C30.3405 29.2181 27.6064 30.9727 23.8189 30.8094C19.4712 30.6204 15.6974 27.4361 14.9344 23.2121C14.2677 19.5139 15.1836 16.2299 18.0466 13.6694C22.085 10.0606 29.1496 10.4146 32.3425 16.3038C32.4543 16.5467 32.5507 16.7964 32.6312 17.0514Z" fill="#6177FC"/>
<path d="M45.7348 18.8372C45.1299 17.4023 44.6058 15.9657 43.9304 14.5909C41.6552 10.0524 38.2956 6.51409 33.5148 4.54644C28.0277 2.2815 22.6575 2.69221 17.5038 5.68063C13.1183 8.22397 10.7107 12.1043 9.94256 16.9297C9.33594 20.6983 10.4048 24.1164 12.9327 27.079C14.0965 28.4066 15.4415 29.5636 16.9281 30.516C17.1915 30.6644 17.4223 30.8643 17.6069 31.1037C17.0501 30.8631 16.4985 30.6156 15.9383 30.3871C12.6251 29.0295 10.3137 26.6666 8.84789 23.4771C8.00928 21.6555 7.7137 19.7205 7.76182 17.734C7.87696 12.8621 9.72431 8.7206 13.4328 5.50707C17.0416 2.38289 21.2999 0.726284 26.158 0.949685C29.4583 1.1105 32.662 2.11645 35.4618 3.87108C38.4863 5.72703 40.8492 8.22568 42.7567 11.1419C44.1786 13.3253 45.1659 15.7625 45.6644 18.32C45.6919 18.4832 45.7073 18.6516 45.7348 18.8372Z" fill="#6177FC"/>
<path d="M2.84613 15.482C2.79801 16.3739 2.72068 17.2641 2.71037 18.1543C2.6296 24.4988 4.85674 29.7728 10.2355 33.4933C13.724 35.8992 17.625 37.0179 21.8936 36.4508C25.5695 35.9627 28.6215 34.2271 31.1459 31.5721C32.6753 29.9619 33.9281 28.1661 34.6378 26.073C35.2478 24.2578 35.5198 22.3462 35.4403 20.4329C35.4403 20.2611 35.4403 20.103 35.4403 19.9363L35.6122 19.9088C35.729 20.4243 35.8768 20.9399 35.9559 21.4554C36.5419 25.1725 35.748 28.5888 33.6738 31.7439C31.0015 35.8064 27.1436 38.1022 22.3868 38.8549C18.2127 39.5165 14.2533 38.7278 10.5981 36.5694C7.81594 34.9282 5.44274 32.8729 3.80504 30.0804C2.79629 28.362 2.26872 26.4373 2.01611 24.4902C1.63976 21.5929 1.70163 18.687 2.56774 15.8481C2.60726 15.7192 2.65882 15.592 2.70521 15.4648L2.84613 15.482Z" fill="#6177FC"/>
<path d="M40.5166 35.2605C40.9565 34.4012 41.4566 33.5815 41.8278 32.7017C43.5274 28.6701 44.2182 24.5303 43.0909 20.2153C41.6817 14.821 38.5369 10.7809 33.4795 8.21518C28.0525 5.46563 21.2165 6.48296 16.8447 10.8427C13.4438 14.2333 12.0467 18.3645 12.619 23.116C12.6705 23.5388 12.7908 23.9529 12.8217 24.3894C12.1967 23.2226 11.7743 21.9582 11.5724 20.65C10.9022 15.8538 12.4849 11.8119 16.0164 8.53138C19.4379 5.35565 23.6206 4.25067 28.2175 4.65967C33.3248 5.11506 37.377 7.52608 40.5355 11.4528C42.6973 14.1387 44.1443 17.1701 44.6598 20.5607C45.0396 23.0817 44.8317 25.613 44.1666 28.0979C43.5428 30.4556 42.6802 32.6999 41.1817 34.6676C41.0098 34.8996 40.8225 35.123 40.6438 35.355L40.5166 35.2605Z" fill="#6177FC"/>
<path d="M34.1223 14.2578C34.6379 14.7734 35.2067 15.2545 35.669 15.8165C38.1711 18.8461 39.4754 22.3003 39.2176 26.2304C39.0324 29.559 37.8054 32.7452 35.7102 35.3383C32.1736 39.7513 27.532 42.1383 21.8886 42.616C19.7233 42.7999 17.6078 42.3342 15.5474 41.6416C13.2006 40.8694 11.024 39.6536 9.13579 38.0603C8.14596 37.2217 7.26954 36.2525 6.33984 35.3417L6.45326 35.2197L8.03769 36.4639C10.5939 38.4889 13.6388 39.8043 16.8655 40.2772C23.2238 41.2258 28.6421 39.3578 33.1067 34.8348C35.1957 32.7649 36.6504 30.1417 37.2998 27.2735C38.257 23.0237 37.5593 19.0781 34.9592 15.5123C34.6722 15.1188 34.3148 14.7751 33.9917 14.4073L34.1223 14.2578Z" fill="#6177FC"/>
<path d="M28.3414 32.1315C27.5819 32.6161 26.8567 33.1626 26.0559 33.5698C21.3541 35.9482 16.6868 35.5255 12.2119 33.0543C8.94676 31.3009 6.47671 28.3642 5.30879 24.8469C4.49424 22.4874 4.05947 20.0953 4.24678 17.6104C4.55439 13.5376 5.7006 9.77592 8.54295 6.66205C10.0037 5.06388 11.7737 3.86954 13.6777 2.85392C13.7534 2.81268 13.8496 2.8144 14.0111 2.9072C13.7619 3.10998 13.5179 3.32135 13.2619 3.51553C9.49499 6.36648 7.31425 10.1557 6.42236 14.7114C5.69717 18.4198 6.19724 21.9719 7.99992 25.2868C10.313 29.5418 13.9768 32.1607 18.7266 33.166C21.8095 33.819 24.8822 33.5355 27.7812 32.159C27.9342 32.0868 28.1009 32.0404 28.259 31.9871L28.3414 32.1315Z" fill="#6177FC"/>
<path d="M27.7435 8.40559L27.4926 8.32483L27.5063 8.21484C28.3999 8.33342 29.3227 8.3506 30.182 8.58603C35.8753 10.1481 39.6576 14.4288 40.6543 18.1992L39.7831 18.481C38.4083 15.6197 36.2929 13.3513 33.5966 11.6466C30.9363 9.92862 27.8476 8.99093 24.6812 8.94004C25.1967 8.94004 25.7122 9.00706 26.2175 8.92113C26.7227 8.83521 27.2159 8.58775 27.7435 8.40559Z" fill="#6177FC"/>
<path d="M26.5457 8.23293C25.9485 8.34122 25.3648 8.51408 24.8049 8.74847C24.731 8.77425 24.6434 8.82408 24.652 8.90142L26.6265 8.96844C26.8727 9.01578 27.1274 8.98743 27.3572 8.88712C27.587 8.7868 27.781 8.61924 27.9136 8.4065C27.96 8.34979 28.0116 8.28105 27.9892 8.21059C27.9669 8.14013 26.6608 8.20887 26.5457 8.23293Z" fill="#6177FC"/>
<path d="M54.2097 21.7308H58.1391V26.8662C57.6197 27.0378 57.08 27.1755 56.52 27.2794C55.9599 27.3788 55.3253 27.4285 54.6162 27.4285C53.6316 27.4285 52.796 27.2343 52.1095 26.8458C51.423 26.4574 50.9014 25.8838 50.5445 25.125C50.1877 24.3662 50.0093 23.4336 50.0093 22.327C50.0093 21.2882 50.2081 20.3894 50.6055 19.6306C51.0075 18.8718 51.5924 18.2847 52.3602 17.8692C53.1325 17.4536 54.0742 17.2459 55.1853 17.2459C55.7092 17.2459 56.2264 17.3023 56.7367 17.4152C57.2471 17.5282 57.7101 17.675 58.1256 17.8556L57.4278 19.5358C57.1252 19.3822 56.7797 19.2535 56.3912 19.1496C56.0028 19.0457 55.5963 18.9938 55.1718 18.9938C54.562 18.9938 54.0313 19.1338 53.5797 19.4138C53.1325 19.6939 52.7848 20.0868 52.5363 20.5927C52.2925 21.094 52.1705 21.6857 52.1705 22.3677C52.1705 23.0135 52.2586 23.5871 52.4347 24.0885C52.6109 24.5853 52.8886 24.976 53.268 25.2605C53.6474 25.5405 54.142 25.6806 54.7517 25.6806C55.0498 25.6806 55.3005 25.667 55.5037 25.6399C55.7115 25.6083 55.9057 25.5767 56.0864 25.5451V23.4787H54.2097V21.7308ZM67.2242 23.4923C67.2242 24.1246 67.1384 24.6847 66.9668 25.1724C66.7996 25.6602 66.5535 26.0735 66.2283 26.4122C65.9076 26.7465 65.5192 26.9994 65.063 27.171C64.6114 27.3427 64.101 27.4285 63.5319 27.4285C62.999 27.4285 62.5089 27.3427 62.0618 27.171C61.6192 26.9994 61.233 26.7465 60.9033 26.4122C60.5781 26.0735 60.3252 25.6602 60.1445 25.1724C59.9683 24.6847 59.8803 24.1246 59.8803 23.4923C59.8803 22.6522 60.0293 21.9408 60.3274 21.3582C60.6255 20.7756 61.0501 20.3329 61.6011 20.0303C62.1521 19.7277 62.8093 19.5764 63.5726 19.5764C64.2817 19.5764 64.9095 19.7277 65.456 20.0303C66.007 20.3329 66.4383 20.7756 66.75 21.3582C67.0661 21.9408 67.2242 22.6522 67.2242 23.4923ZM61.9873 23.4923C61.9873 23.9891 62.0415 24.4069 62.1498 24.7456C62.2582 25.0844 62.4276 25.3396 62.658 25.5112C62.8883 25.6828 63.1887 25.7686 63.559 25.7686C63.9249 25.7686 64.2207 25.6828 64.4465 25.5112C64.6769 25.3396 64.844 25.0844 64.9479 24.7456C65.0563 24.4069 65.1105 23.9891 65.1105 23.4923C65.1105 22.9909 65.0563 22.5754 64.9479 22.2457C64.844 21.9115 64.6769 21.6608 64.4465 21.4937C64.2162 21.3266 63.9158 21.243 63.5455 21.243C62.999 21.243 62.6015 21.4305 62.3531 21.8053C62.1092 22.1802 61.9873 22.7425 61.9873 23.4923ZM78.545 24.5424C78.545 25.1295 78.4027 25.6399 78.1182 26.0735C77.8336 26.5071 77.4181 26.8413 76.8716 27.0762C76.3296 27.311 75.6702 27.4285 74.8933 27.4285C74.5501 27.4285 74.2136 27.4059 73.8839 27.3607C73.5587 27.3156 73.2448 27.2501 72.9422 27.1642C72.6441 27.0739 72.3595 26.9633 72.0885 26.8323V24.8811C72.5583 25.0889 73.0461 25.2763 73.5519 25.4434C74.0578 25.6105 74.5591 25.6941 75.0559 25.6941C75.3992 25.6941 75.6747 25.6489 75.8825 25.5586C76.0947 25.4683 76.2483 25.3441 76.3431 25.186C76.438 25.0279 76.4854 24.8473 76.4854 24.644C76.4854 24.3956 76.4019 24.1833 76.2347 24.0072C76.0676 23.831 75.8373 23.6662 75.5437 23.5126C75.2547 23.359 74.9272 23.1942 74.5614 23.018C74.331 22.9096 74.0803 22.7787 73.8094 22.6251C73.5384 22.467 73.2809 22.2751 73.037 22.0492C72.7931 21.8234 72.5921 21.5502 72.4341 21.2295C72.2805 20.9043 72.2037 20.5159 72.2037 20.0642C72.2037 19.4725 72.3392 18.9667 72.6102 18.5466C72.8812 18.1266 73.2674 17.8059 73.7687 17.5846C74.2746 17.3588 74.8707 17.2459 75.5573 17.2459C76.0721 17.2459 76.5622 17.3069 77.0274 17.4288C77.4971 17.5462 77.9872 17.7179 78.4975 17.9437L77.8201 19.5764C77.3639 19.3912 76.9551 19.249 76.5938 19.1496C76.2325 19.0457 75.8644 18.9938 75.4895 18.9938C75.2276 18.9938 75.004 19.0367 74.8188 19.1225C74.6336 19.2038 74.4936 19.3212 74.3988 19.4748C74.3039 19.6238 74.2565 19.7977 74.2565 19.9965C74.2565 20.2313 74.3242 20.4301 74.4597 20.5927C74.5997 20.7507 74.8075 20.9043 75.083 21.0533C75.363 21.2024 75.7108 21.3763 76.1263 21.575C76.6322 21.8144 77.0635 22.065 77.4203 22.327C77.7817 22.5845 78.0594 22.8893 78.2536 23.2416C78.4479 23.5894 78.545 24.023 78.545 24.5424ZM82.244 16.7513V18.8989C82.244 19.2738 82.2305 19.6306 82.2034 19.9694C82.1808 20.3081 82.1627 20.5475 82.1492 20.6875H82.2576C82.4202 20.4255 82.6121 20.2133 82.8334 20.0507C83.0593 19.8881 83.3077 19.7684 83.5787 19.6916C83.8497 19.6148 84.141 19.5764 84.4526 19.5764C84.9991 19.5764 85.4756 19.6735 85.8821 19.8677C86.2886 20.0574 86.6048 20.3578 86.8306 20.7688C87.0564 21.1753 87.1693 21.7037 87.1693 22.3541V27.293H85.103V22.869C85.103 22.327 85.0036 21.9183 84.8049 21.6428C84.6062 21.3672 84.2991 21.2295 83.8835 21.2295C83.468 21.2295 83.1406 21.3266 82.9012 21.5208C82.6618 21.7105 82.4924 21.9928 82.3931 22.3677C82.2937 22.738 82.244 23.1919 82.244 23.7294V27.293H80.1777V16.7513H82.244ZM96.1799 23.4923C96.1799 24.1246 96.0941 24.6847 95.9224 25.1724C95.7553 25.6602 95.5092 26.0735 95.184 26.4122C94.8633 26.7465 94.4749 26.9994 94.0187 27.171C93.567 27.3427 93.0567 27.4285 92.4876 27.4285C91.9546 27.4285 91.4646 27.3427 91.0175 27.171C90.5748 26.9994 90.1887 26.7465 89.859 26.4122C89.5338 26.0735 89.2808 25.6602 89.1002 25.1724C88.924 24.6847 88.836 24.1246 88.836 23.4923C88.836 22.6522 88.985 21.9408 89.2831 21.3582C89.5812 20.7756 90.0057 20.3329 90.5568 20.0303C91.1078 19.7277 91.7649 19.5764 92.5282 19.5764C93.2373 19.5764 93.8651 19.7277 94.4116 20.0303C94.9627 20.3329 95.394 20.7756 95.7056 21.3582C96.0218 21.9408 96.1799 22.6522 96.1799 23.4923ZM90.9429 23.4923C90.9429 23.9891 90.9971 24.4069 91.1055 24.7456C91.2139 25.0844 91.3833 25.3396 91.6136 25.5112C91.844 25.6828 92.1443 25.7686 92.5147 25.7686C92.8805 25.7686 93.1764 25.6828 93.4022 25.5112C93.6325 25.3396 93.7997 25.0844 93.9035 24.7456C94.0119 24.4069 94.0661 23.9891 94.0661 23.4923C94.0661 22.9909 94.0119 22.5754 93.9035 22.2457C93.7997 21.9115 93.6325 21.6608 93.4022 21.4937C93.1718 21.3266 92.8715 21.243 92.5011 21.243C91.9546 21.243 91.5572 21.4305 91.3088 21.8053C91.0649 22.1802 90.9429 22.7425 90.9429 23.4923ZM102.101 19.5764C102.955 19.5764 103.643 19.9084 104.167 20.5723C104.696 21.2363 104.96 22.2096 104.96 23.4923C104.96 24.3504 104.836 25.0731 104.587 25.6602C104.339 26.2429 103.996 26.6832 103.558 26.9813C103.12 27.2794 102.616 27.4285 102.047 27.4285C101.681 27.4285 101.367 27.3833 101.105 27.293C100.843 27.1981 100.62 27.0784 100.434 26.9339C100.249 26.7849 100.089 26.6268 99.9535 26.4597H99.8451C99.8812 26.6403 99.9083 26.8255 99.9264 27.0152C99.9444 27.2049 99.9535 27.3901 99.9535 27.5707V30.6262H97.8871V19.7187H99.5673L99.8586 20.701H99.9535C100.089 20.4978 100.254 20.3104 100.448 20.1387C100.642 19.9671 100.875 19.8316 101.146 19.7322C101.421 19.6284 101.74 19.5764 102.101 19.5764ZM101.437 21.2295C101.076 21.2295 100.789 21.304 100.577 21.4531C100.364 21.6021 100.209 21.8257 100.109 22.1238C100.014 22.4219 99.9625 22.799 99.9535 23.2552V23.4787C99.9535 23.9665 99.9986 24.3798 100.089 24.7185C100.184 25.0573 100.34 25.3147 100.556 25.4909C100.778 25.667 101.08 25.7551 101.464 25.7551C101.78 25.7551 102.04 25.667 102.243 25.4909C102.447 25.3147 102.598 25.0573 102.697 24.7185C102.801 24.3753 102.853 23.9575 102.853 23.4652C102.853 22.7245 102.738 22.1667 102.508 21.7918C102.277 21.4169 101.92 21.2295 101.437 21.2295Z" fill="#6177FC"/>
</svg>
