<svg width="22" height="22" viewBox="0 0 22 22" fill="none" xmlns="http://www.w3.org/2000/svg">
<path d="M12.8333 7.33464V5.5013C12.8333 5.01507 12.6402 4.54876 12.2964 4.20494C11.9525 3.86112 11.4862 3.66797 11 3.66797H4.58333C4.0971 3.66797 3.63079 3.86112 3.28697 4.20494C2.94315 4.54876 2.75 5.01507 2.75 5.5013V16.5013C2.75 16.9875 2.94315 17.4538 3.28697 17.7977C3.63079 18.1415 4.0971 18.3346 4.58333 18.3346H11C11.4862 18.3346 11.9525 18.1415 12.2964 17.7977C12.6402 17.4538 12.8333 16.9875 12.8333 16.5013V14.668" stroke="#272727" stroke-opacity="0.5" stroke-width="1.5" stroke-linecap="round" stroke-linejoin="round"/>
<path d="M6.4165 11H19.2498M19.2498 11L16.4998 8.25M19.2498 11L16.4998 13.75" stroke="#272727" stroke-opacity="0.5" stroke-width="1.5" stroke-linecap="round" stroke-linejoin="round"/>
</svg>
