<svg width="30" height="22" viewBox="0 0 30 22" fill="none" xmlns="http://www.w3.org/2000/svg">
<path d="M21.4771 6.7531V6.08997C21.4771 3.10408 16.9732 0.851562 11.0002 0.851562C5.02728 0.851562 0.523438 3.10408 0.523438 6.08997V10.8522C0.523438 13.3392 3.64862 15.3155 8.14294 15.9072V16.5668C8.14294 19.5527 12.6468 21.8052 18.6198 21.8052C24.5927 21.8052 29.0966 19.5527 29.0966 16.5668V11.8046C29.0966 9.34016 26.0702 7.36147 21.4771 6.7531ZM27.1917 11.8046C27.1917 13.3785 23.526 15.1381 18.6198 15.1381C18.1757 15.1381 17.7352 15.1226 17.3006 15.0941C19.8686 14.1583 21.4771 12.638 21.4771 10.8522V8.67822C25.0332 9.20801 27.1917 10.6462 27.1917 11.8046ZM8.14294 13.9773V11.145C9.09035 11.2685 10.0448 11.3297 11.0002 11.3284C11.9557 11.3297 12.9102 11.2685 13.8576 11.145V13.9773C12.9116 14.1171 11.9565 14.1867 11.0002 14.1857C10.044 14.1867 9.08894 14.1171 8.14294 13.9773ZM19.5722 9.17706V10.8522C19.5722 11.851 18.0947 12.9237 15.7624 13.5749V10.7926C17.2994 10.42 18.6007 9.86519 19.5722 9.17706ZM11.0002 2.75644C15.9065 2.75644 19.5722 4.51607 19.5722 6.08997C19.5722 7.66387 15.9065 9.4235 11.0002 9.4235C6.09401 9.4235 2.42831 7.66387 2.42831 6.08997C2.42831 4.51607 6.09401 2.75644 11.0002 2.75644ZM2.42831 10.8522V9.17706C3.3998 9.86519 4.70107 10.42 6.23806 10.7926V13.5749C3.90578 12.9237 2.42831 11.851 2.42831 10.8522ZM10.0478 16.5668V16.0703C10.3609 16.0822 10.6776 16.0906 11.0002 16.0906C11.4622 16.0906 11.9134 16.0751 12.3563 16.0489C12.8483 16.225 13.3494 16.3745 13.8576 16.4965V19.2896C11.5253 18.6383 10.0478 17.5656 10.0478 16.5668ZM15.7624 19.692V16.8525C16.7095 16.9798 17.6641 17.0435 18.6198 17.043C19.5752 17.0443 20.5297 16.9831 21.4771 16.8597V19.692C19.5823 19.9698 17.6572 19.9698 15.7624 19.692ZM23.3819 19.2896V16.5073C24.9189 16.1346 26.2202 15.5798 27.1917 14.8917V16.5668C27.1917 17.5656 25.7142 18.6383 23.3819 19.2896Z" fill="#6177FC"/>
</svg>
