<svg width="22" height="22" viewBox="0 0 22 22" fill="none" xmlns="http://www.w3.org/2000/svg">
<path d="M13.6822 2.6665L7.5845 5.59433C7.12427 5.81863 6.60082 5.87755 6.10225 5.76116C5.89189 5.70899 5.67932 5.66617 5.46517 5.63283C3.79225 5.44308 2.75 6.76674 2.75 8.28933V9.12533C2.75 10.647 3.79225 11.9716 5.46517 11.78C5.67954 11.7483 5.89218 11.7058 6.10225 11.6526C6.60093 11.5365 7.12438 11.5957 7.5845 11.8203L13.6822 14.7472C15.0819 15.4192 15.7823 15.7556 16.5623 15.4934C17.3433 15.2312 17.611 14.6693 18.1463 13.5455C18.8728 12.0361 19.2501 10.3825 19.2501 8.70733C19.2501 7.03219 18.8728 5.37856 18.1463 3.86916C17.611 2.74533 17.3433 2.1825 16.5623 1.92125C15.7823 1.65908 15.0819 1.99366 13.6822 2.6665Z" stroke="#272727" stroke-opacity="0.5" stroke-width="1.5" stroke-linecap="round" stroke-linejoin="round"/>
<path d="M6.8752 11.457V5.95703M10.5034 19.0379L9.13662 20.1654C6.05478 17.7215 6.43153 16.5565 6.43153 11.9154H7.47103C7.8927 14.537 8.88728 15.78 10.2604 16.6793C11.1056 17.233 11.2798 18.398 10.5034 19.0379Z" stroke="#272727" stroke-opacity="0.5" stroke-width="1.5" stroke-linecap="round" stroke-linejoin="round"/>
</svg>
