<svg width="29" height="26" viewBox="0 0 29 26" fill="none" xmlns="http://www.w3.org/2000/svg">
<path d="M12.3995 23.8038C12.3995 24.1806 12.2877 24.5489 12.0784 24.8621C11.8691 25.1754 11.5716 25.4195 11.2236 25.5637C10.8755 25.7079 10.4925 25.7456 10.123 25.6721C9.75346 25.5986 9.41404 25.4172 9.14764 25.1508C8.88124 24.8844 8.69982 24.5449 8.62632 24.1754C8.55282 23.8059 8.59054 23.4229 8.73472 23.0749C8.87889 22.7268 9.12304 22.4293 9.4363 22.22C9.74955 22.0107 10.1178 21.8989 10.4946 21.8989C10.9998 21.8989 11.4843 22.0996 11.8415 22.4569C12.1988 22.8141 12.3995 23.2986 12.3995 23.8038ZM22.8763 21.8989C22.4995 21.8989 22.1312 22.0107 21.818 22.22C21.5047 22.4293 21.2606 22.7268 21.1164 23.0749C20.9722 23.4229 20.9345 23.8059 21.008 24.1754C21.0815 24.5449 21.2629 24.8844 21.5293 25.1508C21.7957 25.4172 22.1351 25.5986 22.5047 25.6721C22.8742 25.7456 23.2572 25.7079 23.6052 25.5637C23.9533 25.4195 24.2508 25.1754 24.4601 24.8621C24.6694 24.5489 24.7812 24.1806 24.7812 23.8038C24.7812 23.2986 24.5805 22.8141 24.2232 22.4569C23.866 22.0996 23.3815 21.8989 22.8763 21.8989ZM28.5564 6.91472L25.5038 17.9011C25.336 18.5012 24.977 19.0303 24.4814 19.408C23.9857 19.7857 23.3804 19.9914 22.7572 19.9941H10.9899C10.3649 19.9938 9.7571 19.7891 9.25928 19.4112C8.76145 19.0333 8.40088 18.503 8.23255 17.9011L4.05611 2.85019H1.92265C1.67005 2.85019 1.42779 2.74984 1.24918 2.57123C1.07056 2.39261 0.970215 2.15035 0.970215 1.89775C0.970215 1.64515 1.07056 1.40289 1.24918 1.22428C1.42779 1.04566 1.67005 0.945313 1.92265 0.945313H4.77997C4.98819 0.945273 5.1907 1.01347 5.35648 1.13947C5.52226 1.26548 5.64218 1.44233 5.69788 1.64297L6.82652 5.7075H27.6385C27.7853 5.70747 27.9301 5.74139 28.0617 5.80661C28.1933 5.87183 28.3079 5.96658 28.3968 6.08346C28.4857 6.20035 28.5463 6.33619 28.574 6.48039C28.6017 6.62459 28.5957 6.77323 28.5564 6.91472ZM26.3848 7.61238H7.35631L10.0719 17.3915C10.1276 17.5922 10.2476 17.769 10.4133 17.895C10.5791 18.021 10.7816 18.0892 10.9899 18.0892H22.7572C22.9655 18.0892 23.168 18.021 23.3337 17.895C23.4995 17.769 23.6194 17.5922 23.6751 17.3915L26.3848 7.61238Z" fill="#6177FC"/>
</svg>
