<svg width="21" height="22" viewBox="0 0 21 22" fill="none" xmlns="http://www.w3.org/2000/svg">
<path d="M1.13529 11.0916V20.6929H5.78852V14.6415H9.16004V20.6929H19.8647V11.0916C20.5584 10.5085 21 9.6349 21 8.65999V5.80585L18.2139 1.30859H2.8697L0 5.80032V8.65999C0 9.63492 0.441668 10.5085 1.13529 11.0916ZM6.13596 2.77823L4.88258 6.03364V7.94652V8.65999C4.88258 8.93144 4.81856 9.18808 4.70532 9.41616C4.426 9.97873 3.8456 10.3665 3.1761 10.3665C2.97582 10.3665 2.78362 10.3315 2.60491 10.2678C1.94407 10.0323 1.46961 9.40066 1.46961 8.66001V7.94654V6.22973L3.67474 2.77825L6.13596 2.77823ZM9.76518 2.77823V7.94654V8.66001C9.76518 8.93146 9.70117 9.18811 9.58792 9.41618C9.3086 9.97875 8.7282 10.3665 8.0587 10.3665C7.38919 10.3665 6.8088 9.97875 6.52948 9.41618C6.41623 9.18811 6.35221 8.93144 6.35221 8.66001V7.94654V6.3068L7.71076 2.77825L9.76518 2.77823ZM13.2892 2.77823L14.6478 6.3068V7.94654V8.66001C14.6478 8.93146 14.5838 9.18811 14.4705 9.41618C14.1912 9.97875 13.6108 10.3665 12.9413 10.3665C12.2718 10.3665 11.6914 9.97875 11.4121 9.41618C11.2988 9.18811 11.2348 8.93144 11.2348 8.66001V7.94654V2.77823H13.2892ZM17.3955 2.77823L19.5304 6.2242V7.94654V8.66001C19.5304 9.40066 19.0559 10.0324 18.3951 10.2678C18.2164 10.3315 18.0242 10.3665 17.8239 10.3665C17.1544 10.3665 16.574 9.97875 16.2947 9.41618C16.1814 9.18811 16.1174 8.93144 16.1174 8.66001V7.94654V6.03366L14.864 2.77827H17.3955V2.77823ZM18.3951 19.2233H10.6297V13.1719H4.31889V19.2233H2.60493V11.7845C2.79027 11.8183 2.98115 11.8361 3.17612 11.8361C4.15643 11.8361 5.03434 11.3898 5.61742 10.6896C6.2005 11.3898 7.07841 11.8361 8.0587 11.8361C9.03901 11.8361 9.91692 11.3898 10.5 10.6896C11.0831 11.3898 11.961 11.8361 12.9413 11.8361C13.9216 11.8361 14.7995 11.3898 15.3826 10.6896C15.9657 11.3898 16.8436 11.8361 17.8239 11.8361C18.0188 11.8361 18.2097 11.8184 18.3951 11.7845V19.2233Z" fill="#272727" fill-opacity="0.5"/>
</svg>
